<svg xmlns="http://www.w3.org/2000/svg" width="960" height="600"><rect width="960" height="600" x="0" y="0" fill="#ffffff" id="background"/><g id="viz"><clipPath id="serieClipPath"><rect x="-50" y="-30" width="760" height="600"/></clipPath><g transform="translate(0,0)"><g transform="translate(50,30)" clip-path="url(#serieClipPath)"><g id="axis"><g transform="translate(0,550)" fill="none" font-size="10" font-family="sans-serif" text-anchor="middle"><path class="domain" stroke="currentColor" d="M0,6V0H695V6"/><g class="tick" opacity="1" transform="translate(0,0)"><line stroke="currentColor" y2="6"/><text fill="currentColor" y="9" dy="0.71em">1890</text></g><g class="tick" opacity="1" transform="translate(53.455948279074505,0)"><line stroke="currentColor" y2="6"/><text fill="currentColor" y="9" dy="0.71em">1900</text></g><g class="tick" opacity="1" transform="translate(106.91189655814901,0)"><line stroke="currentColor" y2="6"/><text fill="currentColor" y="9" dy="0.71em">1910</text></g><g class="tick" opacity="1" transform="translate(160.36793987896556,0)"><line stroke="currentColor" y2="6"/><text fill="currentColor" y="9" dy="0.71em">1920</text></g><g class="tick" opacity="1" transform="translate(213.83852560280428,0)"><line stroke="currentColor" y2="6"/><text fill="currentColor" y="9" dy="0.71em">1930</text></g><g class="tick" opacity="1" transform="translate(267.2944738818788,0)"><line stroke="currentColor" y2="6"/><text fill="currentColor" y="9" dy="0.71em">1940</text></g><g class="tick" opacity="1" transform="translate(320.7644497121857,0)"><line stroke="currentColor" y2="6"/><text fill="currentColor" y="9" dy="0.71em">1950</text></g><g class="tick" opacity="1" transform="translate(374.22039799126026,0)"><line stroke="currentColor" y2="6"/><text fill="currentColor" y="9" dy="0.71em">1960</text></g><g class="tick" opacity="1" transform="translate(427.69098371509904,0)"><line stroke="currentColor" y2="6"/><text fill="currentColor" y="9" dy="0.71em">1970</text></g><g class="tick" opacity="1" transform="translate(481.1469319941734,0)"><line stroke="currentColor" y2="6"/><text fill="currentColor" y="9" dy="0.71em">1980</text></g><g class="tick" opacity="1" transform="translate(534.6175177180122,0)"><line stroke="currentColor" y2="6"/><text fill="currentColor" y="9" dy="0.71em">1990</text></g><g class="tick" opacity="1" transform="translate(588.0734659970867,0)"><line stroke="currentColor" y2="6"/><text fill="currentColor" y="9" dy="0.71em">2000</text></g><g class="tick" opacity="1" transform="translate(641.5440517209255,0)"><line stroke="currentColor" y2="6"/><text fill="currentColor" y="9" dy="0.71em">2010</text></g><g class="tick" opacity="1" transform="translate(695,0)"><line stroke="currentColor" y2="6"/><text fill="currentColor" y="9" dy="0.71em">2020</text></g><text x="695" dy="-5" text-anchor="end" style="font-family: Arial, sans-serif; font-size: 12px; fill: rgb(123, 123, 123); font-weight: bold;">Year</text></g><g transform="translate(0,0)" fill="none" font-size="10" font-family="sans-serif" text-anchor="end"><path class="domain" stroke="currentColor" d="M0,550V0"/><g class="tick" opacity="1" transform="translate(0,550)"><line stroke="currentColor" x2="-6"/><text fill="currentColor" x="-9" dy="0.32em">0</text></g><g class="tick" opacity="1" transform="translate(0,504.16666666666663)"><line stroke="currentColor" x2="-6"/><text fill="currentColor" x="-9" dy="0.32em">20</text></g><g class="tick" opacity="1" transform="translate(0,458.33333333333337)"><line stroke="currentColor" x2="-6"/><text fill="currentColor" x="-9" dy="0.32em">40</text></g><g class="tick" opacity="1" transform="translate(0,412.5)"><line stroke="currentColor" x2="-6"/><text fill="currentColor" x="-9" dy="0.32em">60</text></g><g class="tick" opacity="1" transform="translate(0,366.6666666666667)"><line stroke="currentColor" x2="-6"/><text fill="currentColor" x="-9" dy="0.32em">80</text></g><g class="tick" opacity="1" transform="translate(0,320.8333333333333)"><line stroke="currentColor" x2="-6"/><text fill="currentColor" x="-9" dy="0.32em">100</text></g><g class="tick" opacity="1" transform="translate(0,275)"><line stroke="currentColor" x2="-6"/><text fill="currentColor" x="-9" dy="0.32em">120</text></g><g class="tick" opacity="1" transform="translate(0,229.16666666666666)"><line stroke="currentColor" x2="-6"/><text fill="currentColor" x="-9" dy="0.32em">140</text></g><g class="tick" opacity="1" transform="translate(0,183.33333333333334)"><line stroke="currentColor" x2="-6"/><text fill="currentColor" x="-9" dy="0.32em">160</text></g><g class="tick" opacity="1" transform="translate(0,137.5)"><line stroke="currentColor" x2="-6"/><text fill="currentColor" x="-9" dy="0.32em">180</text></g><g class="tick" opacity="1" transform="translate(0,91.66666666666664)"><line stroke="currentColor" x2="-6"/><text fill="currentColor" x="-9" dy="0.32em">200</text></g><g class="tick" opacity="1" transform="translate(0,45.83333333333336)"><line stroke="currentColor" x2="-6"/><text fill="currentColor" x="-9" dy="0.32em">220</text></g><g class="tick" opacity="1" transform="translate(0,0)"><line stroke="currentColor" x2="-6"/><text fill="currentColor" x="-9" dy="0.32em">240</text></g><text x="4" text-anchor="start" dominant-baseline="hanging" style="font-family: Arial, sans-serif; font-size: 12px; fill: rgb(123, 123, 123); font-weight: bold;">NbMedailles</text></g></g><g id="viz"><g id="Summer"><path d="M32.07064147849185,524.7916666666667C42.76329487878318,524.7916666666667,42.76329487878318,11.458333333333353,53.455948279074505,11.458333333333353C64.1412829569837,11.458333333333353,64.1412829569837,545.4166666666666,74.8266176348929,545.4166666666666C80.17660369622962,545.4166666666666,80.17660369622962,403.33333333333337,85.52658975756636,403.33333333333337C90.86925709652095,403.33333333333337,90.86925709652095,458.33333333333337,96.21192443547554,458.33333333333337C106.9046253566379,458.33333333333337,106.9046253566379,490.41666666666663,117.59732627780025,490.41666666666663C138.9826330783829,490.41666666666663,138.9826330783829,226.875,160.36793987896556,226.875C171.06059327925686,226.875,171.06059327925686,297.9166666666667,181.75324667954817,297.9166666666667C192.4459000798395,297.9166666666667,192.4459000798395,435.41666666666663,203.13855348013084,435.41666666666663C213.83120688042217,435.41666666666663,213.83120688042217,458.33333333333337,224.5238602807135,458.33333333333337C235.21651368100484,458.33333333333337,235.21651368100484,449.1666666666667,245.90916708129618,449.1666666666667C277.9868223354042,449.1666666666667,277.9868223354042,385,310.06447758951225,385C320.7571309898036,385,320.7571309898036,458.33333333333337,331.4497843900949,458.33333333333337C342.1424377903862,458.33333333333337,342.1424377903862,474.375,352.83509119067753,474.375C363.5277445909689,474.375,363.5277445909689,522.5,374.22039799126026,522.5C384.91305139155156,522.5,384.91305139155156,478.9583333333333,395.60570479184287,478.9583333333333C406.2983581921342,478.9583333333333,406.2983581921342,488.125,416.9910115924255,488.125C427.68366499271684,488.125,427.68366499271684,499.5833333333333,438.3763183930082,499.5833333333333C449.0689717932995,499.5833333333333,449.0689717932995,504.16666666666663,459.7616251935908,504.16666666666663C470.4542785938821,504.16666666666663,470.4542785938821,483.5416666666667,481.1469319941734,483.5416666666667C491.8395853944648,483.5416666666667,491.8395853944648,396.4583333333333,502.53223879475615,396.4583333333333C513.2248921950475,396.4583333333333,513.2248921950475,483.5416666666667,523.9175455953388,483.5416666666667C534.6101989956301,483.5416666666667,534.6101989956301,419.375,545.3028523959215,419.375C555.9955057962128,419.375,555.9955057962128,433.125,566.6881591965041,433.125C577.3808125967954,433.125,577.3808125967954,398.75,588.0734659970867,398.75C598.7661193973781,398.75,598.7661193973781,428.5416666666667,609.4587727976694,428.5416666666667C620.1514261979607,428.5416666666667,620.1514261979607,373.5416666666667,630.844079598252,373.5416666666667C641.5367329985434,373.5416666666667,641.5367329985434,362.0833333333333,652.2293863988347,362.0833333333333C662.922039799126,362.0833333333333,662.922039799126,330,673.6146931994174,330" stroke="#1f77b4" fill="none"/></g><g id="Winter"><path d="M181.75324667954817,527.0833333333334C192.4459000798395,527.0833333333334,192.4459000798395,545.4166666666666,203.13855348013084,545.4166666666666C213.83120688042217,545.4166666666666,213.83120688042217,545.4166666666666,224.5238602807135,545.4166666666666C235.21651368100484,545.4166666666666,235.21651368100484,547.7083333333334,245.90916708129618,547.7083333333334C277.9868223354042,547.7083333333334,277.9868223354042,538.5416666666666,310.06447758951225,538.5416666666666C320.7571309898036,538.5416666666666,320.7571309898036,547.7083333333334,331.4497843900949,547.7083333333334C352.8350911906776,547.7083333333334,352.8350911906776,543.125,374.22039799126026,543.125C384.91305139155156,543.125,384.91305139155156,533.9583333333334,395.60570479184287,533.9583333333334C406.2983581921342,533.9583333333334,406.2983581921342,529.375,416.9910115924255,529.375C427.68366499271684,529.375,427.68366499271684,543.125,438.3763183930082,543.125C449.0689717932995,543.125,449.0689717932995,547.7083333333334,459.7616251935908,547.7083333333334C470.4542785938821,547.7083333333334,470.4542785938821,547.7083333333334,481.1469319941734,547.7083333333334C491.8395853944648,547.7083333333334,491.8395853944648,543.125,502.53223879475615,543.125C513.2248921950475,543.125,513.2248921950475,545.4166666666666,523.9175455953388,545.4166666666666C534.6101989956301,545.4166666666666,534.6101989956301,522.5,545.3028523959215,522.5C550.6528384572582,522.5,550.6528384572582,524.7916666666667,556.0028245185949,524.7916666666667C566.6954779188862,524.7916666666667,566.6954779188862,515.625,577.3881313191775,515.625C588.0807847194689,515.625,588.0807847194689,515.625,598.7734381197602,515.625C609.4660915200516,515.625,609.4660915200516,515.625,620.1587449203429,515.625C630.8513983206342,515.625,630.8513983206342,517.9166666666666,641.5440517209255,517.9166666666666C652.2367051212168,517.9166666666666,652.2367051212168,508.75,662.9293585215081,508.75" stroke="#ff7f0e" fill="none"/></g></g></g><text y="4" x="4" style="font-family: Arial, sans-serif; font-size: 12px; fill: black; font-weight: bold; dominant-baseline: hanging;"/></g><g id="grid"><rect x="0" y="0" width="760" height="600" fill="none" stroke="#ccc"/></g></g><g id="legend" transform="translate(760,30)"><g transform="translate(5,0)"><g class="legendColor" transform="translate(0,0)"><g class="legendCells" transform="translate(0,15.734375)"><g class="cell" transform="translate(0, 0)"><rect class="swatch" height="15" width="15" style="fill: rgb(31, 119, 180);"/><text class="label" transform="translate( 20, 12.5)" font-family="&quot;Arial&quot;, sans-serif" font-size="10px"><tspan x="0" dy="0em">Summer</tspan></text></g><g class="cell" transform="translate(0, 20.734375)"><rect class="swatch" height="15" width="15" style="fill: rgb(255, 127, 14);"/><text class="label" transform="translate( 20, 12.5)" font-family="&quot;Arial&quot;, sans-serif" font-size="10px"><tspan x="0" dy="0em">Winter</tspan></text></g></g><text class="legendTitle" font-family="&quot;Arial&quot;, sans-serif" font-size="12px" font-weight="bold"><tspan x="0" dy="0em">Type</tspan></text></g></g></g></svg>